<svg width="168" height="44" viewBox="0 0 168 44" fill="none" xmlns="http://www.w3.org/2000/svg">
<path d="M84.2676 15.3852C83.4005 10.4059 80.4838 7.5606 76.3584 7.5606C74.4403 7.5606 72.8374 8.21924 71.7601 9.19403L71.7863 1.3694C71.7863 0.895183 71.3922 0.5 70.9192 0.5H67.0566C66.5836 0.5 66.1895 0.895183 66.1895 1.3694V1.29037L66.1369 24.6852L66.0581 28.7161V28.6634C66.0581 29.1376 66.4523 29.5328 66.9252 29.5328H66.8989H74.4665C82.2969 29.5328 85.8179 24.2637 84.2676 15.3852ZM74.5716 25.2911H72.6272H72.6535C72.1805 25.2911 71.7863 24.896 71.7863 24.4217V23.8158L71.8126 14.4104C71.8126 12.777 73.2315 11.8022 74.7818 11.8022C77.646 11.8022 78.3817 14.6212 78.7759 16.8342C79.6692 21.998 77.3569 25.2911 74.5716 25.2911Z" fill="#030D3F"/>
<path d="M117.008 28.0574C117.008 28.5316 117.376 28.9004 117.849 28.9268H120.923C121.396 28.9004 121.764 28.5316 121.764 28.0574V24.7905V13.0668L121.816 8.45632C121.816 7.9821 121.422 7.58691 120.949 7.58691H113.96C105.683 7.58691 102.162 13.5673 103.633 21.9716C104.421 26.3976 106.997 29.5064 111.358 29.5064C113.934 29.5064 115.799 28.7424 117.008 26.8455V28.0574ZM112.882 25.3701C110.57 25.3701 109.572 23.526 109.204 21.3129C108.573 17.6509 108.967 11.9339 113.461 11.7495H115.352H115.326C115.799 11.7495 116.193 12.1447 116.193 12.6189V12.8033L116.22 22.3141C116.141 23.9211 115.011 25.3701 112.882 25.3701Z" fill="#030D3F"/>
<path d="M134.902 12.7506C135.375 12.8296 135.795 12.6979 135.874 12.2237L136.452 9.14124C136.584 8.74605 136.4 8.32452 136.032 8.11376C135.217 7.77127 134.193 7.5605 133.168 7.5605C131.25 7.5605 129.331 8.66702 128.412 11.1172L127.807 8.4826C127.676 7.98203 127.387 7.53416 126.914 7.50781H124.654C124.181 7.50781 123.813 7.903 123.813 8.37722L123.761 11.7494L123.735 28.0837C123.761 28.5315 124.129 28.9004 124.575 28.9267H128.569C129.042 28.9004 129.41 28.5315 129.41 28.0573L129.437 16.0438C129.489 13.5936 130.882 12.4081 132.905 12.4081C133.641 12.4081 134.35 12.5398 134.981 12.7769L134.902 12.7506Z" fill="#030D3F"/>
<path d="M165.724 12.7506C166.197 12.8296 166.618 12.6979 166.697 12.2237L167.275 9.14124C167.406 8.74605 167.222 8.32452 166.854 8.11376C166.04 7.77127 165.015 7.5605 163.99 7.5605C162.072 7.5605 160.154 8.66702 159.234 11.1172L158.63 8.4826C158.498 7.98203 158.209 7.53416 157.736 7.50781H155.477C155.004 7.50781 154.636 7.903 154.636 8.37722L154.583 11.7494L154.557 28.0837C154.583 28.5315 154.951 28.9004 155.398 28.9267H159.339C159.812 28.9004 160.18 28.5315 160.18 28.0573L160.206 16.0438C160.259 13.5936 161.651 12.4081 163.675 12.4081C164.41 12.4081 165.12 12.5398 165.751 12.7769L165.724 12.7506Z" fill="#030D3F"/>
<path d="M152.77 27.6358C153.191 27.3987 153.296 26.9245 153.085 26.503L151.772 24.1582C151.535 23.763 151.036 23.684 150.642 23.8948C149.564 24.5534 148.145 25.1857 146.385 25.1857C143.337 25.1857 142.154 23.1044 141.76 20.8914C146.595 20.7333 154.136 19.6268 152.901 12.5925C152.35 9.43108 149.722 7.56055 145.886 7.56055C138.266 7.56055 134.85 14.226 136.085 21.2339C136.925 26.0288 139.947 29.5327 145.649 29.5327C149.118 29.5327 151.561 28.4262 152.77 27.6358ZM145.754 11.6178C146.779 11.6178 147.699 12.1974 147.883 13.3039C148.329 15.8067 144.913 16.6234 142.47 16.8078C141.997 16.8078 141.682 16.518 141.682 15.9384C142.076 13.8835 143.179 11.6178 145.754 11.6178Z" fill="#030D3F"/>
<path d="M102.504 27.6358C102.924 27.3987 103.029 26.9245 102.819 26.503L101.505 24.1582C101.269 23.763 100.769 23.684 100.375 23.8948C99.2978 24.5534 97.8789 25.1857 96.1184 25.1857C93.0703 25.1857 91.8879 23.1044 91.4937 20.8914C96.3286 20.7333 103.87 19.6268 102.635 12.5925C102.083 9.43108 99.4555 7.56055 95.6191 7.56055C87.999 7.56055 84.5831 14.226 85.8181 21.2339C86.6589 26.0288 89.6807 29.5327 95.3826 29.5327C98.8774 29.5327 101.295 28.4262 102.504 27.6358ZM95.514 11.6178C96.5388 11.6178 97.4585 12.1974 97.6424 13.3039C98.0891 15.8067 94.6732 16.6234 92.2295 16.8078C91.7565 16.8078 91.4412 16.518 91.4412 15.9384C91.8091 13.8835 92.9389 11.6178 95.514 11.6178Z" fill="#030D3F"/>
<path d="M7.09766 22.7646L8.06156 23.7824C8.24229 23.9675 8.45314 24.06 8.69412 24.06C8.72424 24.06 8.75436 24.06 8.78449 24.06C8.96522 24.0292 9.14595 23.9675 9.29656 23.8133C9.47729 23.659 9.56766 23.4123 9.56766 23.1964C9.56766 22.9496 9.47729 22.7337 9.32668 22.5487L8.33266 21.5C7.97119 21.9935 7.54949 22.4253 7.09766 22.7646Z" fill="url(#paint0_linear_2_11700)"/>
<path d="M19.2848 12.1277L20.2168 14.6861C20.3298 14.9954 20.6405 15.2203 20.9794 15.2203C21.0641 15.2203 21.1771 15.1922 21.2618 15.1641C21.6855 15.0235 21.9114 14.5456 21.7419 14.1238L20.8099 11.5935C20.3298 11.8465 19.8214 12.0152 19.2848 12.1277Z" fill="url(#paint1_linear_2_11700)"/>
<path d="M33.7213 11.3809L32.6372 14.3849C32.4946 14.81 32.6943 15.2917 33.1222 15.4334C33.2078 15.4618 33.3219 15.4901 33.4075 15.4901H33.436C33.7784 15.4901 34.0636 15.2634 34.1778 14.9517L35.2618 11.976C34.9195 11.891 34.5772 11.806 34.2348 11.6643C34.0636 11.5509 33.8925 11.4659 33.7213 11.3809Z" fill="url(#paint2_linear_2_11700)"/>
<path d="M43.9976 26.2821C44.0541 26.2821 44.0823 26.2821 44.1388 26.2821C44.393 26.2821 44.6189 26.1676 44.7884 25.9672L45.7769 24.7363C45.2968 24.45 44.8731 24.0779 44.5342 23.6199L43.4892 24.908C43.2068 25.2516 43.2632 25.7955 43.6022 26.0817C43.7151 26.1962 43.8563 26.2535 43.9976 26.2821Z" fill="url(#paint3_linear_2_11700)"/>
<path d="M44.2896 30.2845C43.2908 29.9111 42.2064 29.7674 41.1505 29.8536C40.0946 29.9398 39.0388 30.2845 38.0685 30.8017C37.9543 30.8591 37.8116 30.8304 37.7546 30.7155C37.6975 30.6006 37.726 30.4856 37.8117 30.3995C38.2112 30.0834 38.6392 29.8249 39.0958 29.595V28.3022C39.0958 21.5221 33.6167 16.0061 26.8818 16.0061C21.2314 16.0061 16.3801 19.8271 15.0103 25.2857C15.4098 25.4293 15.8093 25.6017 16.1803 25.8028C16.9223 26.1763 17.6072 26.6647 18.235 27.2392C18.8343 27.8138 19.3765 28.4459 19.8046 29.1641C19.9187 29.3652 19.8616 29.595 19.6619 29.71C19.4907 29.8249 19.2624 29.7674 19.1482 29.6238C18.6631 29.0205 18.1494 28.5033 17.5501 28.0437C16.9794 27.584 16.323 27.1818 15.6667 26.8945C14.3254 26.2912 12.8415 26.0039 11.386 26.1188C9.93064 26.205 8.50377 26.7221 7.27667 27.4978C6.67738 27.9 6.10664 28.3884 5.6215 28.9343C5.10783 29.4801 4.7083 30.0834 4.36586 30.7442C3.0246 33.3586 3.08167 36.6624 4.65123 39.1619C5.3932 40.426 6.47762 41.4602 7.73326 42.2072C8.98891 42.9541 10.4443 43.3276 11.9283 43.3564L41.9496 43.5C44.0328 43.5 46.0875 42.4945 47.3146 40.7995C48.5988 39.1332 48.9698 36.8635 48.399 34.8238C47.8568 32.7553 46.2873 31.0028 44.2896 30.2845Z" fill="url(#paint4_linear_2_11700)"/>
<path d="M15.9029 10.4466C16.5357 10.7064 17.1686 10.8507 17.8302 10.8507C19.8726 10.8507 21.7136 9.60956 22.5191 7.73337C23.5834 5.13556 22.3753 2.16252 19.7863 1.09453C19.1822 0.834752 18.5206 0.69043 17.859 0.69043C15.8166 0.69043 13.9755 1.9316 13.1701 3.8078C12.6523 5.04897 12.6523 6.43447 13.1701 7.7045C13.6879 8.94568 14.6659 9.92707 15.9029 10.4466Z" fill="#9DACE3"/>
<path d="M34.7474 10.4466C35.3803 10.7064 36.0131 10.8507 36.6747 10.8507C38.7171 10.8507 40.5582 9.60956 41.3636 7.73337C42.428 5.13556 41.2198 2.16252 38.6308 1.09453C37.998 0.834752 37.3651 0.69043 36.7035 0.69043C34.6611 0.69043 32.8201 1.9316 32.0146 3.8078C30.9503 6.4056 32.1584 9.37865 34.7474 10.4466Z" fill="#9DACE3"/>
<path d="M50.9323 18.896C50.4721 18.1455 49.7529 17.5971 48.8899 17.3662C48.631 17.3085 48.3434 17.2507 48.0845 17.2507C46.5599 17.2507 45.2366 18.2899 44.8627 19.7619C44.4312 21.5515 45.4955 23.3411 47.279 23.803C47.5379 23.8607 47.8256 23.9184 48.0845 23.9184C49.6091 23.9184 50.9323 22.8793 51.3063 21.4072C51.5364 20.5701 51.3926 19.6753 50.9323 18.896Z" fill="#9DACE3"/>
<path d="M8.17264 18.9119C8.7192 16.6893 7.36719 14.409 5.15219 13.8606C4.80699 13.774 4.4618 13.7451 4.14537 13.7451C2.2468 13.7451 0.578364 15.044 0.118105 16.8914C-0.140791 17.9593 0.0318064 19.0851 0.578364 20.0376C1.15369 20.9901 2.04544 21.6829 3.13856 21.9426C3.48375 22.0292 3.82894 22.0581 4.14537 22.0581C6.07271 22.087 7.71238 20.7881 8.17264 18.9119Z" fill="#9DACE3"/>
<path d="M66.0977 43.3584V35.6416H68.7033C69.2685 35.6416 69.7672 35.7006 70.1994 35.8186C70.6399 35.9366 70.9849 36.1372 71.2342 36.4204C71.4919 36.6957 71.6207 37.0693 71.6207 37.5413C71.6207 37.9031 71.521 38.2453 71.3215 38.5678C71.122 38.8825 70.8436 39.0988 70.4862 39.2168V39.264C70.935 39.3584 71.3049 39.559 71.5958 39.8658C71.895 40.1647 72.0446 40.5737 72.0446 41.0929C72.0446 41.6042 71.9075 42.029 71.6332 42.3673C71.3672 42.7055 70.9973 42.9572 70.5236 43.1224C70.0498 43.2797 69.5137 43.3584 68.9153 43.3584H66.0977ZM67.5439 38.8274H68.5787C69.1439 38.8274 69.5553 38.7291 69.8129 38.5324C70.0706 38.3358 70.1994 38.0723 70.1994 37.7419C70.1994 37.3643 70.0664 37.0969 69.8005 36.9395C69.5345 36.7822 69.1355 36.7035 68.6036 36.7035H67.5439V38.8274ZM67.5439 42.2965H68.7657C69.3641 42.2965 69.8254 42.1942 70.1496 41.9897C70.4737 41.7773 70.6358 41.4548 70.6358 41.0221C70.6358 40.6131 70.4779 40.3181 70.162 40.1372C69.8462 39.9484 69.3807 39.854 68.7657 39.854H67.5439V42.2965Z" fill="#3200BE"/>
<path d="M79.1554 39.2522L78.8686 40.1962H80.9507L80.6639 39.2522C80.5309 38.8432 80.4021 38.4223 80.2774 37.9897C80.1611 37.557 80.0447 37.1283 79.9283 36.7035H79.8785C79.7704 37.1362 79.654 37.5688 79.5294 38.0015C79.413 38.4263 79.2883 38.8432 79.1554 39.2522ZM76.425 43.3584L79.0805 35.6416H80.7761L83.4317 43.3584H81.9106L81.2748 41.2699H78.532L77.8961 43.3584H76.425Z" fill="#3200BE"/>
<path d="M89.2269 43.3584V36.7979H86.8706V35.6416H93.0295V36.7979H90.6731V43.3584H89.2269Z" fill="#3200BE"/>
<path d="M99.9809 43.3584V36.7979H97.6245V35.6416H103.783V36.7979H101.427V43.3584H99.9809Z" fill="#3200BE"/>
<path d="M109.089 43.3584V35.6416H110.535V42.2021H113.926V43.3584H109.089Z" fill="#3200BE"/>
<path d="M119.295 43.3584V35.6416H124.207V36.7979H120.741V38.7684H123.671V39.9248H120.741V42.2021H124.332V43.3584H119.295Z" fill="#3200BE"/>
<path d="M132.333 43.5C131.784 43.5 131.252 43.4017 130.737 43.205C130.23 43.0084 129.781 42.7291 129.391 42.3673L130.238 41.4351C130.529 41.6947 130.862 41.9071 131.236 42.0723C131.61 42.2296 131.984 42.3083 132.358 42.3083C132.823 42.3083 133.177 42.2178 133.418 42.0369C133.659 41.8559 133.779 41.616 133.779 41.3171C133.779 40.9946 133.659 40.7625 133.418 40.6209C133.185 40.4794 132.886 40.3338 132.52 40.1844L131.398 39.7242C131.132 39.6141 130.87 39.4725 130.613 39.2994C130.363 39.1264 130.155 38.9061 129.989 38.6386C129.831 38.3712 129.752 38.0487 129.752 37.6711C129.752 37.262 129.869 36.8963 130.101 36.5737C130.342 36.2434 130.667 35.9838 131.074 35.795C131.489 35.5983 131.963 35.5 132.495 35.5C132.969 35.5 133.426 35.5905 133.866 35.7714C134.307 35.9444 134.685 36.1804 135.001 36.4794L134.265 37.3525C134.008 37.148 133.734 36.9867 133.443 36.8687C133.16 36.7507 132.844 36.6917 132.495 36.6917C132.113 36.6917 131.801 36.7743 131.56 36.9395C131.327 37.0969 131.211 37.3171 131.211 37.6003C131.211 37.797 131.269 37.9621 131.385 38.0959C131.51 38.2217 131.672 38.3319 131.872 38.4263C132.071 38.5128 132.283 38.5993 132.508 38.6858L133.617 39.1224C134.099 39.3191 134.494 39.5787 134.802 39.9012C135.109 40.2158 135.263 40.6524 135.263 41.2109C135.263 41.6278 135.146 42.0093 134.914 42.3555C134.681 42.7016 134.344 42.9808 133.904 43.1932C133.472 43.3977 132.948 43.5 132.333 43.5Z" fill="#3200BE"/>
<path d="M140.694 43.3584V35.6416H142.14V38.7448H145.444V35.6416H146.89V43.3584H145.444V39.9366H142.14V43.3584H140.694Z" fill="#3200BE"/>
<path d="M152.908 43.3584V35.6416H154.355V43.3584H152.908Z" fill="#3200BE"/>
<path d="M160.375 43.3584V35.6416H162.943C163.55 35.6416 164.09 35.7163 164.564 35.8658C165.038 36.0152 165.412 36.263 165.686 36.6091C165.961 36.9553 166.098 37.4272 166.098 38.0251C166.098 38.5914 165.961 39.0595 165.686 39.4292C165.412 39.7989 165.042 40.0742 164.577 40.2552C164.111 40.4361 163.583 40.5265 162.993 40.5265H161.821V43.3584H160.375ZM161.821 39.4292H162.881C164.078 39.4292 164.676 38.9612 164.676 38.0251C164.676 37.5374 164.518 37.203 164.203 37.0221C163.895 36.8333 163.438 36.7389 162.831 36.7389H161.821V39.4292Z" fill="#3200BE"/>
<defs>
<linearGradient id="paint0_linear_2_11700" x1="7.08585" y1="22.7968" x2="9.55223" y2="22.7968" gradientUnits="userSpaceOnUse">
<stop stop-color="#00A9E2"/>
<stop offset="0.1882" stop-color="#1981D7"/>
<stop offset="0.4572" stop-color="#394DC8"/>
<stop offset="0.6919" stop-color="#5027BE"/>
<stop offset="0.8802" stop-color="#5F10B7"/>
<stop offset="0.9987" stop-color="#6408B5"/>
</linearGradient>
<linearGradient id="paint1_linear_2_11700" x1="19.2748" y1="13.411" x2="21.8035" y2="13.411" gradientUnits="userSpaceOnUse">
<stop stop-color="#00A9E2"/>
<stop offset="0.1882" stop-color="#1981D7"/>
<stop offset="0.4572" stop-color="#394DC8"/>
<stop offset="0.6919" stop-color="#5027BE"/>
<stop offset="0.8802" stop-color="#5F10B7"/>
<stop offset="0.9987" stop-color="#6408B5"/>
</linearGradient>
<linearGradient id="paint2_linear_2_11700" x1="32.5763" y1="13.4279" x2="35.2827" y2="13.4279" gradientUnits="userSpaceOnUse">
<stop stop-color="#00A9E2"/>
<stop offset="0.1882" stop-color="#1981D7"/>
<stop offset="0.4572" stop-color="#394DC8"/>
<stop offset="0.6919" stop-color="#5027BE"/>
<stop offset="0.8802" stop-color="#5F10B7"/>
<stop offset="0.9987" stop-color="#6408B5"/>
</linearGradient>
<linearGradient id="paint3_linear_2_11700" x1="43.3111" y1="24.9646" x2="45.771" y2="24.9646" gradientUnits="userSpaceOnUse">
<stop stop-color="#00A9E2"/>
<stop offset="0.1882" stop-color="#1981D7"/>
<stop offset="0.4572" stop-color="#394DC8"/>
<stop offset="0.6919" stop-color="#5027BE"/>
<stop offset="0.8802" stop-color="#5F10B7"/>
<stop offset="0.9987" stop-color="#6408B5"/>
</linearGradient>
<linearGradient id="paint4_linear_2_11700" x1="3.45052" y1="29.7321" x2="48.693" y2="29.7321" gradientUnits="userSpaceOnUse">
<stop stop-color="#00A9E2"/>
<stop offset="0.1882" stop-color="#1981D7"/>
<stop offset="0.4572" stop-color="#394DC8"/>
<stop offset="0.6919" stop-color="#5027BE"/>
<stop offset="0.8802" stop-color="#5F10B7"/>
<stop offset="0.9987" stop-color="#6408B5"/>
</linearGradient>
</defs>
</svg>
